<?xml version="1.0" encoding="UTF-8"?>
<svg width="1024" height="1024" viewBox="0 0 1024 1024" xmlns="http://www.w3.org/2000/svg" role="img" aria-label="Five Crowns logo">
  <defs>
    <linearGradient id="bg" x1="0" y1="0" x2="1" y2="1">
      <stop offset="0%" stop-color="#0B1220"/>
      <stop offset="55%" stop-color="#0F1E3A"/>
      <stop offset="100%" stop-color="#111827"/>
    </linearGradient>

    <linearGradient id="gold" x1="0" y1="0" x2="1" y2="1">
      <stop offset="0%" stop-color="#FDE68A"/>
      <stop offset="45%" stop-color="#F59E0B"/>
      <stop offset="100%" stop-color="#B45309"/>
    </linearGradient>

    <filter id="shadow" x="-40%" y="-40%" width="180%" height="180%">
      <feDropShadow dx="0" dy="18" stdDeviation="18" flood-color="#000000" flood-opacity="0.35"/>
    </filter>

    <filter id="innerGlow" x="-40%" y="-40%" width="180%" height="180%">
      <feGaussianBlur in="SourceGraphic" stdDeviation="6" result="blur"/>
      <feColorMatrix in="blur" type="matrix"
        values="1 0 0 0 0.25  0 1 0 0 0.25  0 0 1 0 0.25  0 0 0 0.45 0" result="tint"/>
      <feBlend in="SourceGraphic" in2="tint" mode="screen"/>
    </filter>

    <!-- Crown symbol (modern geometric) -->
    <symbol id="crown" viewBox="-96 -96 192 192">
      <!-- tips -->
      <path d="M -80 20 L -55 -40 L -20 20 L 0 -60 L 20 20 L 55 -40 L 80 20"
            fill="none" stroke="url(#gold)" stroke-width="18" stroke-linecap="round" stroke-linejoin="round"/>
      <!-- base -->
      <rect x="-78" y="18" width="156" height="64" rx="22" fill="url(#gold)"/>
      <!-- tip dots -->
      <circle cx="-55" cy="-40" r="10" fill="#FDE68A"/>
      <circle cx="0" cy="-60" r="10" fill="#FDE68A"/>
      <circle cx="55" cy="-40" r="10" fill="#FDE68A"/>
      <!-- subtle highlight -->
      <path d="M -62 30 C -30 18, 10 18, 62 30" fill="none" stroke="#FFFFFF" stroke-opacity="0.25" stroke-width="10" stroke-linecap="round"/>
    </symbol>
  </defs>

  <!-- background -->
  <rect x="0" y="0" width="1024" height="1024" rx="220" fill="url(#bg)"/>
  <!-- faint vignette ring -->
  <circle cx="512" cy="512" r="420" fill="none" stroke="#FFFFFF" stroke-opacity="0.06" stroke-width="22"/>

  <!-- mark -->
  <g filter="url(#shadow)" transform="translate(512 540)">
    <!-- card stack -->
    <g filter="url(#innerGlow)">
      <g transform="rotate(-10) translate(-12 -10)">
        <rect x="-230" y="-250" width="460" height="560" rx="64"
              fill="#FFFFFF" fill-opacity="0.06" stroke="#FFFFFF" stroke-opacity="0.16" stroke-width="8"/>
      </g>
      <g transform="rotate(8) translate(12 10)">
        <rect x="-230" y="-250" width="460" height="560" rx="64"
              fill="#FFFFFF" fill-opacity="0.08" stroke="#FFFFFF" stroke-opacity="0.18" stroke-width="10"/>
      </g>
    </g>

    <!-- five crowns arc -->
    <g transform="translate(0 -320)">
      <g transform="translate(-260 0) rotate(-22)">
        <use href="#crown" width="140" height="140" x="-70" y="-70"/>
      </g>
      <g transform="translate(-130 -34) rotate(-10)">
        <use href="#crown" width="150" height="150" x="-75" y="-75"/>
      </g>
      <g transform="translate(0 -50) rotate(0)">
        <use href="#crown" width="160" height="160" x="-80" y="-80"/>
      </g>
      <g transform="translate(130 -34) rotate(10)">
        <use href="#crown" width="150" height="150" x="-75" y="-75"/>
      </g>
      <g transform="translate(260 0) rotate(22)">
        <use href="#crown" width="140" height="140" x="-70" y="-70"/>
      </g>
    </g>

    <!-- sparkle -->
    <g transform="translate(170 -210) rotate(18)">
      <path d="M0 -40 L10 -10 L40 0 L10 10 L0 40 L-10 10 L-40 0 L-10 -10 Z"
            fill="#FDE68A" opacity="0.75"/>
    </g>

    <!-- subtle inner badge -->
    <g transform="translate(0 50)">
      <circle cx="0" cy="0" r="140" fill="none" stroke="url(#gold)" stroke-opacity="0.55" stroke-width="12"/>
      
      <circle cx="-38" cy="-28" r="10" fill="#FDE68A" opacity="0.92"/>
      <circle cx="38" cy="-28" r="10" fill="#FDE68A" opacity="0.92"/>
<path d="M -70 15 C -20 80, 20 80, 70 15"
            fill="none" stroke="#FDE68A" stroke-opacity="0.70" stroke-width="16" stroke-linecap="round"/>
      <circle cx="-70" cy="15" r="10" fill="#FDE68A" opacity="0.9"/>
      <circle cx="70" cy="15" r="10" fill="#FDE68A" opacity="0.9"/>
    </g>
  </g>
</svg>
